<svg width="22" height="22" viewBox="0 0 22 22" fill="none" xmlns="http://www.w3.org/2000/svg">
<path d="M10.7 1.00004L14.5212 4.58157M10.7 1.00004L6.87879 4.58157M10.7 1.00004V7.26772V13.5354M20.4 12.5406V18.0123C20.4 19.331 19.3472 20.4 18.0485 20.4H3.35152C2.05281 20.4 1 19.331 1 18.0123V12.5406" stroke="black" stroke-width="2" stroke-linecap="round" stroke-linejoin="round"/>
<path d="M10.7 1.00004L14.5212 4.58157M10.7 1.00004L6.87879 4.58157M10.7 1.00004V7.26772V13.5354M20.4 12.5406V18.0123C20.4 19.331 19.3472 20.4 18.0485 20.4H3.35152C2.05281 20.4 1 19.331 1 18.0123V12.5406" stroke="black" stroke-opacity="0.2" stroke-width="2" stroke-linecap="round" stroke-linejoin="round"/>
</svg>
