<svg width="117" height="33" viewBox="0 0 117 33" fill="none" xmlns="http://www.w3.org/2000/svg">
<path fill-rule="evenodd" clip-rule="evenodd" d="M21.8644 0.377693C21.8653 0.377805 21.892 0.410297 21.8918 0.451728H21.9306V3.49357L21.8571 3.49474L21.8001 3.49567L21.6367 3.49849C21.4952 3.50099 21.2913 3.50476 21.0416 3.50979C20.5422 3.51986 19.8598 3.53498 19.1278 3.55524C17.6625 3.59579 16.0027 3.65681 15.2121 3.73856C14.0105 3.86353 13.1709 4.26776 12.6354 5.00664C12.0976 5.74885 11.8567 6.84193 11.8853 8.36638L11.8853 8.36778L11.8853 8.5754H21.9306V12.2487H11.8853V29.7188H6.86144V12.2529H0.702148V8.57961H6.86144V7.48775C6.86144 4.63544 7.59318 2.87461 8.79102 1.79229C9.98639 0.712201 11.6321 0.320996 13.4299 0.175359C15.064 0.0444245 17.1741 0.0951806 18.8729 0.178368C19.7228 0.219985 20.4707 0.269765 21.0058 0.309142C21.2734 0.328832 21.4878 0.345922 21.6352 0.358094C21.709 0.364179 21.7659 0.369036 21.8044 0.372373L21.8482 0.376206L21.8593 0.377205L21.8622 0.377476L21.8633 0.377578L21.8644 0.377693ZM31.4062 4.84459H26.0581V29.7228H31.4062V4.84459ZM83.0718 29.6423L83.0718 29.6419L83.0718 29.6404L83.0727 29.6115L83.0752 29.5211C83.0774 29.4418 83.0805 29.3251 83.0842 29.1754C83.0915 28.8761 83.1013 28.4448 83.1108 27.9173C83.1298 26.8622 83.1477 25.4218 83.1436 23.8803C83.1354 20.8012 83.0393 17.3069 82.6844 15.6827C82.3292 14.0618 81.4347 11.9279 79.3636 10.5668C77.2907 9.20448 74.0562 8.62736 69.0452 10.0859C67.5428 10.5237 65.7857 11.3283 64.4065 12.022C63.7164 12.3691 63.1199 12.6889 62.6959 12.9219C62.4839 13.0384 62.315 13.1333 62.1991 13.199L62.1203 13.2439C62.1152 13.203 62.1079 13.1523 62.0976 13.093C62.0683 12.9253 62.0146 12.6889 61.9166 12.4117C61.7206 11.8574 61.3474 11.1394 60.6384 10.4838C59.2181 9.17031 56.4699 8.12382 51.1615 9.10308C46.5762 9.94916 43.6529 11.7321 41.8116 13.4932V9.09763H36.7877V29.7189H41.8116V17.3033L41.8254 17.2819C41.8424 17.256 41.8685 17.2176 41.9041 17.1681C41.9754 17.0691 42.0848 16.926 42.2367 16.7513C42.5405 16.4019 43.0142 15.9257 43.6917 15.4221C45.0462 14.4152 47.2174 13.297 50.479 12.8629C53.7448 12.4283 55.5668 13.0022 56.5772 14.1248C57.5917 15.2519 57.8097 16.9537 57.8097 18.8314V29.6444V29.7189H62.9033V16.5679L62.9227 16.5573C62.9607 16.5365 63.017 16.506 63.0899 16.4671C63.2358 16.3892 63.4484 16.2777 63.7147 16.1434C64.2474 15.8748 64.9949 15.5151 65.854 15.1509C67.5746 14.4214 69.7338 13.6777 71.5107 13.6046C73.059 13.5418 74.2216 13.7563 75.0972 14.1688C75.9715 14.5807 76.5643 15.1922 76.9707 15.9319C77.7873 17.4179 77.8529 19.4199 77.9167 21.3686C77.9802 23.3104 77.9802 25.3777 77.9643 26.9598C77.9564 27.7509 77.9445 28.4205 77.9345 28.8923C77.9296 29.1282 77.9251 29.3147 77.9219 29.4422L77.9199 29.5197L77.918 29.5879L77.9167 29.6372L77.9166 29.638L77.9144 29.7147H83.0696L83.0718 29.6423ZM82.9973 29.6402L83.0718 29.6423L83.0709 29.6423L82.9973 29.6402ZM101.25 6.4364C96.4105 6.4364 92.5834 7.69968 89.9651 9.94977C87.3456 12.201 85.944 15.4333 85.944 19.3534C85.944 23.2902 87.3454 26.5487 89.9649 28.8221C92.5831 31.0944 96.4102 32.3757 101.25 32.3757C106.074 32.3757 109.893 31.0944 112.507 28.8221C115.123 26.5487 116.524 23.2902 116.524 19.3534C116.524 15.4522 115.123 12.22 112.507 9.96407C109.893 7.70925 106.074 6.4364 101.25 6.4364ZM90.7709 19.3576C90.7709 16.7332 91.6701 14.519 93.4239 12.9599C95.1787 11.4001 97.7977 10.4887 101.25 10.4887C104.703 10.4887 107.323 11.4001 109.079 12.96C110.834 14.519 111.734 16.7332 111.734 19.3576C111.732 21.9988 110.824 24.23 109.065 25.8018C107.306 27.3743 104.687 28.294 101.25 28.294C97.7977 28.294 95.1788 27.3826 93.424 25.8144C91.6702 24.2471 90.7709 22.016 90.7709 19.3576Z" fill="white"/>
</svg>
