<svg width="28" height="28" viewBox="0 0 28 28" fill="none" xmlns="http://www.w3.org/2000/svg">
<path d="M13.1201 1.75808L2.64587 10.7182C2.44882 10.8874 2.33331 11.145 2.33331 11.421V25.6173C2.33331 26.1141 2.70363 26.5152 3.16228 26.5152H10.6501C11.1088 26.5152 11.4791 26.1141 11.4791 25.6173V20.4142C11.4791 19.6709 12.0363 19.0674 12.7226 19.0674H15.4982C16.1845 19.0674 16.7417 19.6709 16.7417 20.4142V25.6173C16.7417 26.1141 17.112 26.5152 17.5706 26.5152H24.8377C25.2963 26.5152 25.6666 26.1141 25.6666 25.6173V11.421C25.6666 11.145 25.5511 10.8874 25.3507 10.7145L14.8799 1.75808C14.3431 1.39379 13.6568 1.39379 13.1201 1.75808Z" fill="black"/>
<path d="M13.1201 1.75808L2.64587 10.7182C2.44882 10.8874 2.33331 11.145 2.33331 11.421V25.6173C2.33331 26.1141 2.70363 26.5152 3.16228 26.5152H10.6501C11.1088 26.5152 11.4791 26.1141 11.4791 25.6173V20.4142C11.4791 19.6709 12.0363 19.0674 12.7226 19.0674H15.4982C16.1845 19.0674 16.7417 19.6709 16.7417 20.4142V25.6173C16.7417 26.1141 17.112 26.5152 17.5706 26.5152H24.8377C25.2963 26.5152 25.6666 26.1141 25.6666 25.6173V11.421C25.6666 11.145 25.5511 10.8874 25.3507 10.7145L14.8799 1.75808C14.3431 1.39379 13.6568 1.39379 13.1201 1.75808Z" fill="black" fill-opacity="0.2"/>
</svg>
