<svg width="26" height="26" viewBox="0 0 26 26" fill="none" xmlns="http://www.w3.org/2000/svg">
<g clip-path="url(#clip0_287_8047)">
<path fill-rule="evenodd" clip-rule="evenodd" d="M12.2515 18.6731C12.2515 19.0873 12.5873 19.4231 13.0015 19.4231C13.4157 19.4231 13.7515 19.0873 13.7515 18.6731V14.2802H18.1443C18.5585 14.2802 18.8943 13.9444 18.8943 13.5302C18.8943 13.116 18.5585 12.7802 18.1443 12.7802H13.7515V8.1731C13.7515 7.75888 13.4157 7.4231 13.0015 7.4231C12.5873 7.4231 12.2515 7.75888 12.2515 8.1731V12.7802H7.64429C7.23007 12.7802 6.89429 13.116 6.89429 13.5302C6.89429 13.9444 7.23007 14.2802 7.64429 14.2802H12.2515V18.6731Z" fill="#7F7F7F"/>
</g>
<defs>
<clipPath id="clip0_287_8047">
<rect width="18" height="18" fill="white" transform="translate(0 13.2567) rotate(-45)"/>
</clipPath>
</defs>
</svg>
