<svg width="228" height="62" viewBox="0 0 228 62" fill="none" xmlns="http://www.w3.org/2000/svg">
<path d="M43.3949 17.627L43.3426 17.604L43.2905 17.6274L23.2852 26.6149L23.0146 26.7364L23.2884 26.8507L43.2938 35.2028L43.3427 35.2232L43.3919 35.2032L63.8476 26.8512L64.1284 26.7365L63.8507 26.6145L43.3949 17.627ZM60.8757 26.6937L43.3482 33.8501L26.2068 26.6938L43.3483 18.9928L60.8757 26.6937Z" fill="white" stroke="white" stroke-width="0.257051"/>
<path d="M43.3949 22.3955L43.3426 22.3725L43.2905 22.3959L23.2852 31.3834L23.0146 31.505L23.2884 31.6193L43.2938 39.9713L43.3427 39.9918L43.3919 39.9717L63.8476 31.6197L64.1284 31.5051L63.8507 31.3831L43.3949 22.3955ZM60.8757 31.4623L43.3482 38.6187L26.2068 31.4623L43.3483 23.7614L60.8757 31.4623Z" fill="white" stroke="white" stroke-width="0.257051"/>
<path d="M43.3949 26.947L43.3426 26.9241L43.2905 26.9475L23.2852 35.9349L23.0146 36.0565L23.2884 36.1708L43.2938 44.5228L43.3427 44.5433L43.3919 44.5232L63.8476 36.1712L64.1284 36.0566L63.8507 35.9346L43.3949 26.947ZM60.8757 36.0138L43.3482 43.1702L26.2068 36.0139L43.3483 28.3129L60.8757 36.0138Z" fill="white" stroke="white" stroke-width="0.257051"/>
<path fill-rule="evenodd" clip-rule="evenodd" d="M98.8644 15.3777C98.8653 15.3778 98.892 15.4103 98.8918 15.4517H98.9306V18.4936L98.8571 18.4947L98.8001 18.4957L98.6367 18.4985C98.4952 18.501 98.2913 18.5048 98.0416 18.5098C97.5422 18.5199 96.8598 18.535 96.1278 18.5552C94.6625 18.5958 93.0027 18.6568 92.2121 18.7386C91.0105 18.8635 90.1709 19.2678 89.6354 20.0066C89.0976 20.7488 88.8567 21.8419 88.8853 23.3664L88.8853 23.3678L88.8853 23.5754H98.9306V27.2487H88.8853V44.7188H83.8614V27.2529H77.7021V23.5796H83.8614V22.4877C83.8614 19.6354 84.5932 17.8746 85.791 16.7923C86.9864 15.7122 88.6321 15.321 90.4299 15.1754C92.064 15.0444 94.1741 15.0952 95.8729 15.1784C96.7228 15.22 97.4707 15.2698 98.0058 15.3091C98.2734 15.3288 98.4878 15.3459 98.6352 15.3581C98.709 15.3642 98.7659 15.369 98.8044 15.3724L98.8482 15.3762L98.8593 15.3772L98.8622 15.3775L98.8633 15.3776L98.8644 15.3777ZM108.406 19.8446H103.058V44.7228H108.406V19.8446ZM160.072 44.6423L160.072 44.6419L160.072 44.6404L160.073 44.6115L160.075 44.5211C160.077 44.4418 160.08 44.3251 160.084 44.1754C160.092 43.8761 160.101 43.4448 160.111 42.9173C160.13 41.8622 160.148 40.4218 160.144 38.8803C160.135 35.8012 160.039 32.3069 159.684 30.6827C159.329 29.0618 158.435 26.9279 156.364 25.5668C154.291 24.2045 151.056 23.6274 146.045 25.0859C144.543 25.5237 142.786 26.3283 141.406 27.022C140.716 27.3691 140.12 27.6889 139.696 27.9219C139.484 28.0384 139.315 28.1333 139.199 28.199L139.12 28.2439C139.115 28.203 139.108 28.1523 139.098 28.093C139.068 27.9253 139.015 27.6889 138.917 27.4117C138.721 26.8574 138.347 26.1394 137.638 25.4838C136.218 24.1703 133.47 23.1238 128.161 24.1031C123.576 24.9492 120.653 26.7321 118.812 28.4932V24.0976H113.788V44.7189H118.812V32.3033L118.825 32.2819C118.842 32.256 118.869 32.2176 118.904 32.1681C118.975 32.0691 119.085 31.926 119.237 31.7513C119.541 31.4019 120.014 30.9257 120.692 30.4221C122.046 29.4152 124.217 28.297 127.479 27.8629C130.745 27.4283 132.567 28.0022 133.577 29.1248C134.592 30.2519 134.81 31.9537 134.81 33.8314V44.6444V44.7189H139.903V31.5679L139.923 31.5573C139.961 31.5365 140.017 31.506 140.09 31.4671C140.236 31.3892 140.448 31.2777 140.715 31.1434C141.247 30.8748 141.995 30.5151 142.854 30.1509C144.575 29.4214 146.734 28.6777 148.511 28.6046C150.059 28.5418 151.222 28.7563 152.097 29.1688C152.972 29.5807 153.564 30.1922 153.971 30.9319C154.787 32.4179 154.853 34.4199 154.917 36.3686C154.98 38.3104 154.98 40.3777 154.964 41.9598C154.956 42.7509 154.944 43.4205 154.935 43.8923C154.93 44.1282 154.925 44.3147 154.922 44.4422L154.92 44.5197L154.918 44.5879L154.917 44.6372L154.917 44.638L154.914 44.7147H160.07L160.072 44.6423ZM159.997 44.6402L160.072 44.6423L160.071 44.6423L159.997 44.6402ZM178.25 21.4364C173.41 21.4364 169.583 22.6997 166.965 24.9498C164.346 27.201 162.944 30.4333 162.944 34.3534C162.944 38.2902 164.345 41.5487 166.965 43.8221C169.583 46.0944 173.41 47.3757 178.25 47.3757C183.074 47.3757 186.893 46.0944 189.507 43.8221C192.123 41.5487 193.524 38.2902 193.524 34.3534C193.524 30.4522 192.123 27.22 189.507 24.9641C186.893 22.7093 183.074 21.4364 178.25 21.4364ZM167.771 34.3576C167.771 31.7332 168.67 29.519 170.424 27.9599C172.179 26.4001 174.798 25.4887 178.25 25.4887C181.703 25.4887 184.323 26.4001 186.079 27.96C187.834 29.519 188.734 31.7332 188.734 34.3576C188.732 36.9988 187.824 39.23 186.065 40.8018C184.306 42.3743 181.687 43.294 178.25 43.294C174.798 43.294 172.179 42.3826 170.424 40.8144C168.67 39.2471 167.771 37.016 167.771 34.3576Z" fill="white"/>
</svg>
