<svg width="20" height="20" viewBox="0 0 20 20" fill="none" xmlns="http://www.w3.org/2000/svg">
<g clip-path="url(#clip0_147_3459)">
<path d="M1.75 10H18.25M10 1.75V18.25M3.75 18.25H16.25C17.3546 18.25 18.25 17.3546 18.25 16.25V3.75C18.25 2.64543 17.3546 1.75 16.25 1.75H3.75C2.64543 1.75 1.75 2.64543 1.75 3.75V16.25C1.75 17.3546 2.64543 18.25 3.75 18.25Z" stroke="#D9D9D9" stroke-width="2" stroke-linecap="round" stroke-linejoin="round"/>
<path d="M1.75 10H18.25M10 1.75V18.25M3.75 18.25H16.25C17.3546 18.25 18.25 17.3546 18.25 16.25V3.75C18.25 2.64543 17.3546 1.75 16.25 1.75H3.75C2.64543 1.75 1.75 2.64543 1.75 3.75V16.25C1.75 17.3546 2.64543 18.25 3.75 18.25Z" stroke="black" stroke-opacity="0.2" stroke-width="2" stroke-linecap="round" stroke-linejoin="round"/>
</g>
<defs>
<clipPath id="clip0_147_3459">
<rect width="20" height="20" fill="white"/>
</clipPath>
</defs>
</svg>
