<svg width="26" height="28" viewBox="0 0 26 28" fill="none" xmlns="http://www.w3.org/2000/svg">
<mask id="path-1-outside-1_147_2671" maskUnits="userSpaceOnUse" x="0" y="0" width="26" height="28" fill="black">
<rect fill="white" width="26" height="28"/>
<path d="M20.0406 7.90711C19.6992 7.30925 19.1378 6.87288 18.4796 6.69351C18.1545 6.60292 17.8149 6.57926 17.4806 6.62393C17.1464 6.66859 16.8244 6.78068 16.5336 6.95357C16.1427 7.18204 15.8182 7.51095 15.5927 7.90711L13.9248 4.98146C13.7564 4.68534 13.5321 4.42576 13.2647 4.21755C12.9973 4.00934 12.692 3.85659 12.3663 3.76803C12.0406 3.67947 11.7008 3.65684 11.3665 3.70143C11.0322 3.74603 10.7098 3.85697 10.4178 4.02792C10.0114 4.26253 9.678 4.60789 9.45549 5.0248C9.15075 4.66554 8.75497 4.39746 8.31088 4.24952C7.86678 4.10157 7.39124 4.07938 6.93561 4.18534C6.47998 4.2913 6.06156 4.52138 5.72554 4.85074C5.38952 5.1801 5.14866 5.59623 5.02897 6.0542C4.91117 6.49044 4.91117 6.95075 5.02897 7.38699C4.7077 7.43298 4.39872 7.5435 4.12015 7.71207C3.82795 7.88269 3.57181 8.11 3.36636 8.38101C3.16091 8.65201 3.01019 8.96141 2.9228 9.29149C2.83542 9.62157 2.81309 9.96587 2.85709 10.3047C2.90109 10.6435 3.01056 10.9703 3.17924 11.2662L3.56416 11.938C3.11367 11.936 2.67078 12.0556 2.28111 12.2847C1.69315 12.6314 1.26428 13.1995 1.08802 13.8653C0.911762 14.5311 1.00241 15.2405 1.34021 15.8389L5.29627 22.7846C6.0914 24.1733 7.25993 25.3041 8.66544 26.045C10.071 26.786 11.6554 27.1064 13.2339 26.9689C14.8124 26.8314 16.3197 26.2417 17.5798 25.2687C18.84 24.2956 19.801 22.9793 20.3507 21.4735C21.711 20.1631 22.5987 18.4285 22.872 16.5468C23.1453 14.6651 22.7884 12.7448 21.8583 11.0928L20.0406 7.90711ZM10.4605 5.93501C10.5043 5.7712 10.5797 5.61786 10.6825 5.48392C10.7853 5.34997 10.9134 5.2381 11.0593 5.15483C11.2053 5.06936 11.3665 5.01389 11.5337 4.99159C11.7008 4.96929 11.8707 4.98061 12.0336 5.02489C12.1964 5.06917 12.3491 5.14554 12.4828 5.24965C12.6165 5.35375 12.7286 5.48355 12.8128 5.63161L15.2399 9.87922C14.9535 9.93694 14.6788 10.0432 14.4273 10.1935C14.0318 10.4158 13.7058 10.7462 13.4864 11.147L11.8184 8.21051C11.5619 7.77068 11.1874 7.41371 10.7385 7.18112L10.5888 6.93189C10.4193 6.62931 10.3733 6.27154 10.4605 5.93501ZM6.26925 6.39011C6.33453 6.14116 6.47131 5.91747 6.66222 5.74742C6.85313 5.57737 7.08958 5.46861 7.34158 5.43495C7.59357 5.40128 7.84975 5.44423 8.07763 5.55834C8.3055 5.67244 8.4948 5.85257 8.62151 6.07587L9.12403 6.95357C8.74896 7.02388 8.39408 7.17805 8.0852 7.40485C7.77632 7.63166 7.52122 7.9254 7.33846 8.26469C7.12045 8.00199 6.85104 7.78799 6.54724 7.63622L6.39756 7.37616C6.22866 7.07731 6.18257 6.72311 6.26925 6.39011ZM16.0525 24.7459C14.4313 25.6933 12.5056 25.9504 10.6976 25.4608C8.88967 24.9713 7.3471 23.775 6.40825 22.1344L2.45218 15.1887C2.36794 15.0407 2.31328 14.8774 2.29133 14.708C2.26938 14.5386 2.28056 14.3665 2.32425 14.2015C2.36793 14.0364 2.44326 13.8818 2.54593 13.7462C2.64861 13.6107 2.77661 13.497 2.92263 13.4117C3.06866 13.3263 3.22985 13.2709 3.397 13.2486C3.56415 13.2264 3.73399 13.2377 3.89682 13.282C4.05965 13.3263 4.21227 13.4026 4.34599 13.5067C4.4797 13.6107 4.59189 13.7404 4.67613 13.8884L7.24223 18.3961C7.29857 18.495 7.37962 18.5771 7.47722 18.6342C7.57482 18.6912 7.68554 18.7213 7.79822 18.7212C7.91054 18.7194 8.0207 18.6896 8.11898 18.6345C8.19203 18.5918 8.25606 18.535 8.30742 18.4673C8.35879 18.3995 8.39647 18.3222 8.41831 18.2396C8.44016 18.1571 8.44574 18.071 8.43474 17.9863C8.42374 17.9016 8.39637 17.8199 8.3542 17.746L4.29122 10.616C4.12108 10.3172 4.07506 9.96204 4.16328 9.62877C4.25151 9.29551 4.46676 9.01141 4.76167 8.83898C5.05658 8.66656 5.40701 8.61992 5.73585 8.70933C6.0647 8.79874 6.34503 9.01688 6.51517 9.31576L10.5782 16.4457C10.6203 16.5197 10.6764 16.5845 10.7432 16.6366C10.8101 16.6886 10.8864 16.7268 10.9678 16.7489C11.0492 16.771 11.1341 16.7767 11.2177 16.7656C11.3013 16.7544 11.3819 16.7267 11.4549 16.6841C11.5279 16.6414 11.5919 16.5845 11.6433 16.5168C11.6946 16.449 11.7323 16.3717 11.7541 16.2892C11.7759 16.2067 11.7815 16.1206 11.7706 16.0359C11.7596 15.9512 11.7323 15.8695 11.6901 15.7955L8.48251 10.1609C8.31361 9.86209 8.26752 9.5079 8.3542 9.17489C8.39665 9.00913 8.47152 8.85369 8.57438 8.71781C8.67723 8.58193 8.80597 8.46837 8.95296 8.38388C9.24848 8.21415 9.59801 8.16902 9.92608 8.25822C10.2542 8.34742 10.5345 8.56381 10.7065 8.86066L15.1971 16.7491C15.2535 16.848 15.3345 16.9301 15.4321 16.9871C15.5297 17.0442 15.6404 17.0742 15.7531 17.0741C15.8653 17.0711 15.9751 17.0414 16.0739 16.9875C16.2193 16.8993 16.3251 16.7573 16.369 16.5915C16.4129 16.4256 16.3914 16.249 16.3091 16.0989L14.5984 13.0866C14.5143 12.9395 14.4597 12.7769 14.4379 12.6083C14.416 12.4397 14.4273 12.2684 14.471 12.1043C14.5147 11.9401 14.5901 11.7864 14.6927 11.6518C14.7953 11.5173 14.9231 11.4046 15.0688 11.3204C15.213 11.2332 15.3729 11.1761 15.5391 11.1524C15.7053 11.1287 15.8745 11.1388 16.0368 11.1822C16.1991 11.2256 16.3513 11.3014 16.4843 11.4051C16.6173 11.5089 16.7286 11.6384 16.8116 11.7863L18.6293 14.9829C19.0933 15.7952 19.3948 16.6923 19.5165 17.6228C19.6381 18.5533 19.5775 19.499 19.3382 20.4058C19.0989 21.3125 18.6855 22.1626 18.1217 22.9073C17.5579 23.652 16.8548 24.2768 16.0525 24.7459ZM20.8639 18.667C20.8878 17.1454 20.4995 15.6463 19.7413 14.3327L17.9236 11.1362C17.6736 10.6976 17.3018 10.3434 16.8544 10.1176L16.7047 9.85754C16.6183 9.71068 16.5623 9.54747 16.5402 9.37793C16.5182 9.20838 16.5305 9.03605 16.5764 8.87149C16.6188 8.70573 16.6937 8.55029 16.7966 8.41441C16.8994 8.27853 17.0282 8.16497 17.1752 8.08048C17.4707 7.91075 17.8202 7.86562 18.1483 7.95482C18.4764 8.04402 18.7567 8.26041 18.9287 8.55725L20.7463 11.743C21.3372 12.7945 21.6576 13.9798 21.6782 15.1898C21.6987 16.3997 21.4187 17.5954 20.8639 18.667ZM17.5387 3.08521L17.9878 1.40567C18.0466 1.25861 18.1566 1.13846 18.2968 1.06787C18.4371 0.99727 18.598 0.981102 18.7492 1.02241C18.9004 1.06371 19.0314 1.15964 19.1177 1.29211C19.2039 1.42458 19.2394 1.58445 19.2173 1.74157L18.779 3.42111C18.7431 3.55943 18.6625 3.68156 18.5501 3.76799C18.4377 3.85442 18.2999 3.90016 18.1588 3.89789C18.1045 3.90134 18.05 3.89398 17.9984 3.87622C17.8341 3.83287 17.6934 3.72527 17.6073 3.577C17.5211 3.42873 17.4964 3.25188 17.5387 3.08521ZM20.3293 4.14711L21.3023 2.72763C21.4001 2.58537 21.5497 2.48833 21.7181 2.45785C21.8866 2.42737 22.0601 2.46594 22.2004 2.56509C22.3408 2.66424 22.4365 2.81583 22.4666 2.98653C22.4967 3.15723 22.4586 3.33304 22.3608 3.47529L21.3771 4.89477C21.3193 4.98166 21.2412 5.0528 21.1499 5.10193C21.0585 5.15106 20.9566 5.17667 20.8532 5.1765C20.7199 5.17341 20.5901 5.13209 20.479 5.05731C20.3419 4.95533 20.2495 4.8031 20.2215 4.63306C20.1935 4.46303 20.2322 4.28865 20.3293 4.14711ZM24.7238 6.19506L23.3231 7.18112C23.2144 7.26084 23.0831 7.30266 22.9489 7.30031C22.8132 7.29888 22.6816 7.25393 22.5727 7.17191C22.4639 7.08989 22.3835 6.97502 22.3431 6.8438C22.3027 6.71258 22.3044 6.57176 22.3479 6.44157C22.3914 6.31139 22.4746 6.19853 22.5853 6.11921L23.986 5.12233C24.1264 5.02318 24.2999 4.9846 24.4683 5.01508C24.6367 5.04557 24.7863 5.14261 24.8841 5.28486C24.982 5.42712 25.02 5.60293 24.99 5.77362C24.9599 5.94432 24.8641 6.09592 24.7238 6.19506Z"/>
</mask>
<path d="M20.0406 7.90711C19.6992 7.30925 19.1378 6.87288 18.4796 6.69351C18.1545 6.60292 17.8149 6.57926 17.4806 6.62393C17.1464 6.66859 16.8244 6.78068 16.5336 6.95357C16.1427 7.18204 15.8182 7.51095 15.5927 7.90711L13.9248 4.98146C13.7564 4.68534 13.5321 4.42576 13.2647 4.21755C12.9973 4.00934 12.692 3.85659 12.3663 3.76803C12.0406 3.67947 11.7008 3.65684 11.3665 3.70143C11.0322 3.74603 10.7098 3.85697 10.4178 4.02792C10.0114 4.26253 9.678 4.60789 9.45549 5.0248C9.15075 4.66554 8.75497 4.39746 8.31088 4.24952C7.86678 4.10157 7.39124 4.07938 6.93561 4.18534C6.47998 4.2913 6.06156 4.52138 5.72554 4.85074C5.38952 5.1801 5.14866 5.59623 5.02897 6.0542C4.91117 6.49044 4.91117 6.95075 5.02897 7.38699C4.7077 7.43298 4.39872 7.5435 4.12015 7.71207C3.82795 7.88269 3.57181 8.11 3.36636 8.38101C3.16091 8.65201 3.01019 8.96141 2.9228 9.29149C2.83542 9.62157 2.81309 9.96587 2.85709 10.3047C2.90109 10.6435 3.01056 10.9703 3.17924 11.2662L3.56416 11.938C3.11367 11.936 2.67078 12.0556 2.28111 12.2847C1.69315 12.6314 1.26428 13.1995 1.08802 13.8653C0.911762 14.5311 1.00241 15.2405 1.34021 15.8389L5.29627 22.7846C6.0914 24.1733 7.25993 25.3041 8.66544 26.045C10.071 26.786 11.6554 27.1064 13.2339 26.9689C14.8124 26.8314 16.3197 26.2417 17.5798 25.2687C18.84 24.2956 19.801 22.9793 20.3507 21.4735C21.711 20.1631 22.5987 18.4285 22.872 16.5468C23.1453 14.6651 22.7884 12.7448 21.8583 11.0928L20.0406 7.90711ZM10.4605 5.93501C10.5043 5.7712 10.5797 5.61786 10.6825 5.48392C10.7853 5.34997 10.9134 5.2381 11.0593 5.15483C11.2053 5.06936 11.3665 5.01389 11.5337 4.99159C11.7008 4.96929 11.8707 4.98061 12.0336 5.02489C12.1964 5.06917 12.3491 5.14554 12.4828 5.24965C12.6165 5.35375 12.7286 5.48355 12.8128 5.63161L15.2399 9.87922C14.9535 9.93694 14.6788 10.0432 14.4273 10.1935C14.0318 10.4158 13.7058 10.7462 13.4864 11.147L11.8184 8.21051C11.5619 7.77068 11.1874 7.41371 10.7385 7.18112L10.5888 6.93189C10.4193 6.62931 10.3733 6.27154 10.4605 5.93501ZM6.26925 6.39011C6.33453 6.14116 6.47131 5.91747 6.66222 5.74742C6.85313 5.57737 7.08958 5.46861 7.34158 5.43495C7.59357 5.40128 7.84975 5.44423 8.07763 5.55834C8.3055 5.67244 8.4948 5.85257 8.62151 6.07587L9.12403 6.95357C8.74896 7.02388 8.39408 7.17805 8.0852 7.40485C7.77632 7.63166 7.52122 7.9254 7.33846 8.26469C7.12045 8.00199 6.85104 7.78799 6.54724 7.63622L6.39756 7.37616C6.22866 7.07731 6.18257 6.72311 6.26925 6.39011ZM16.0525 24.7459C14.4313 25.6933 12.5056 25.9504 10.6976 25.4608C8.88967 24.9713 7.3471 23.775 6.40825 22.1344L2.45218 15.1887C2.36794 15.0407 2.31328 14.8774 2.29133 14.708C2.26938 14.5386 2.28056 14.3665 2.32425 14.2015C2.36793 14.0364 2.44326 13.8818 2.54593 13.7462C2.64861 13.6107 2.77661 13.497 2.92263 13.4117C3.06866 13.3263 3.22985 13.2709 3.397 13.2486C3.56415 13.2264 3.73399 13.2377 3.89682 13.282C4.05965 13.3263 4.21227 13.4026 4.34599 13.5067C4.4797 13.6107 4.59189 13.7404 4.67613 13.8884L7.24223 18.3961C7.29857 18.495 7.37962 18.5771 7.47722 18.6342C7.57482 18.6912 7.68554 18.7213 7.79822 18.7212C7.91054 18.7194 8.0207 18.6896 8.11898 18.6345C8.19203 18.5918 8.25606 18.535 8.30742 18.4673C8.35879 18.3995 8.39647 18.3222 8.41831 18.2396C8.44016 18.1571 8.44574 18.071 8.43474 17.9863C8.42374 17.9016 8.39637 17.8199 8.3542 17.746L4.29122 10.616C4.12108 10.3172 4.07506 9.96204 4.16328 9.62877C4.25151 9.29551 4.46676 9.01141 4.76167 8.83898C5.05658 8.66656 5.40701 8.61992 5.73585 8.70933C6.0647 8.79874 6.34503 9.01688 6.51517 9.31576L10.5782 16.4457C10.6203 16.5197 10.6764 16.5845 10.7432 16.6366C10.8101 16.6886 10.8864 16.7268 10.9678 16.7489C11.0492 16.771 11.1341 16.7767 11.2177 16.7656C11.3013 16.7544 11.3819 16.7267 11.4549 16.6841C11.5279 16.6414 11.5919 16.5845 11.6433 16.5168C11.6946 16.449 11.7323 16.3717 11.7541 16.2892C11.7759 16.2067 11.7815 16.1206 11.7706 16.0359C11.7596 15.9512 11.7323 15.8695 11.6901 15.7955L8.48251 10.1609C8.31361 9.86209 8.26752 9.5079 8.3542 9.17489C8.39665 9.00913 8.47152 8.85369 8.57438 8.71781C8.67723 8.58193 8.80597 8.46837 8.95296 8.38388C9.24848 8.21415 9.59801 8.16902 9.92608 8.25822C10.2542 8.34742 10.5345 8.56381 10.7065 8.86066L15.1971 16.7491C15.2535 16.848 15.3345 16.9301 15.4321 16.9871C15.5297 17.0442 15.6404 17.0742 15.7531 17.0741C15.8653 17.0711 15.9751 17.0414 16.0739 16.9875C16.2193 16.8993 16.3251 16.7573 16.369 16.5915C16.4129 16.4256 16.3914 16.249 16.3091 16.0989L14.5984 13.0866C14.5143 12.9395 14.4597 12.7769 14.4379 12.6083C14.416 12.4397 14.4273 12.2684 14.471 12.1043C14.5147 11.9401 14.5901 11.7864 14.6927 11.6518C14.7953 11.5173 14.9231 11.4046 15.0688 11.3204C15.213 11.2332 15.3729 11.1761 15.5391 11.1524C15.7053 11.1287 15.8745 11.1388 16.0368 11.1822C16.1991 11.2256 16.3513 11.3014 16.4843 11.4051C16.6173 11.5089 16.7286 11.6384 16.8116 11.7863L18.6293 14.9829C19.0933 15.7952 19.3948 16.6923 19.5165 17.6228C19.6381 18.5533 19.5775 19.499 19.3382 20.4058C19.0989 21.3125 18.6855 22.1626 18.1217 22.9073C17.5579 23.652 16.8548 24.2768 16.0525 24.7459ZM20.8639 18.667C20.8878 17.1454 20.4995 15.6463 19.7413 14.3327L17.9236 11.1362C17.6736 10.6976 17.3018 10.3434 16.8544 10.1176L16.7047 9.85754C16.6183 9.71068 16.5623 9.54747 16.5402 9.37793C16.5182 9.20838 16.5305 9.03605 16.5764 8.87149C16.6188 8.70573 16.6937 8.55029 16.7966 8.41441C16.8994 8.27853 17.0282 8.16497 17.1752 8.08048C17.4707 7.91075 17.8202 7.86562 18.1483 7.95482C18.4764 8.04402 18.7567 8.26041 18.9287 8.55725L20.7463 11.743C21.3372 12.7945 21.6576 13.9798 21.6782 15.1898C21.6987 16.3997 21.4187 17.5954 20.8639 18.667ZM17.5387 3.08521L17.9878 1.40567C18.0466 1.25861 18.1566 1.13846 18.2968 1.06787C18.4371 0.99727 18.598 0.981102 18.7492 1.02241C18.9004 1.06371 19.0314 1.15964 19.1177 1.29211C19.2039 1.42458 19.2394 1.58445 19.2173 1.74157L18.779 3.42111C18.7431 3.55943 18.6625 3.68156 18.5501 3.76799C18.4377 3.85442 18.2999 3.90016 18.1588 3.89789C18.1045 3.90134 18.05 3.89398 17.9984 3.87622C17.8341 3.83287 17.6934 3.72527 17.6073 3.577C17.5211 3.42873 17.4964 3.25188 17.5387 3.08521ZM20.3293 4.14711L21.3023 2.72763C21.4001 2.58537 21.5497 2.48833 21.7181 2.45785C21.8866 2.42737 22.0601 2.46594 22.2004 2.56509C22.3408 2.66424 22.4365 2.81583 22.4666 2.98653C22.4967 3.15723 22.4586 3.33304 22.3608 3.47529L21.3771 4.89477C21.3193 4.98166 21.2412 5.0528 21.1499 5.10193C21.0585 5.15106 20.9566 5.17667 20.8532 5.1765C20.7199 5.17341 20.5901 5.13209 20.479 5.05731C20.3419 4.95533 20.2495 4.8031 20.2215 4.63306C20.1935 4.46303 20.2322 4.28865 20.3293 4.14711ZM24.7238 6.19506L23.3231 7.18112C23.2144 7.26084 23.0831 7.30266 22.9489 7.30031C22.8132 7.29888 22.6816 7.25393 22.5727 7.17191C22.4639 7.08989 22.3835 6.97502 22.3431 6.8438C22.3027 6.71258 22.3044 6.57176 22.3479 6.44157C22.3914 6.31139 22.4746 6.19853 22.5853 6.11921L23.986 5.12233C24.1264 5.02318 24.2999 4.9846 24.4683 5.01508C24.6367 5.04557 24.7863 5.14261 24.8841 5.28486C24.982 5.42712 25.02 5.60293 24.99 5.77362C24.9599 5.94432 24.8641 6.09592 24.7238 6.19506Z" fill="black"/>
<path d="M20.0406 7.90711C19.6992 7.30925 19.1378 6.87288 18.4796 6.69351C18.1545 6.60292 17.8149 6.57926 17.4806 6.62393C17.1464 6.66859 16.8244 6.78068 16.5336 6.95357C16.1427 7.18204 15.8182 7.51095 15.5927 7.90711L13.9248 4.98146C13.7564 4.68534 13.5321 4.42576 13.2647 4.21755C12.9973 4.00934 12.692 3.85659 12.3663 3.76803C12.0406 3.67947 11.7008 3.65684 11.3665 3.70143C11.0322 3.74603 10.7098 3.85697 10.4178 4.02792C10.0114 4.26253 9.678 4.60789 9.45549 5.0248C9.15075 4.66554 8.75497 4.39746 8.31088 4.24952C7.86678 4.10157 7.39124 4.07938 6.93561 4.18534C6.47998 4.2913 6.06156 4.52138 5.72554 4.85074C5.38952 5.1801 5.14866 5.59623 5.02897 6.0542C4.91117 6.49044 4.91117 6.95075 5.02897 7.38699C4.7077 7.43298 4.39872 7.5435 4.12015 7.71207C3.82795 7.88269 3.57181 8.11 3.36636 8.38101C3.16091 8.65201 3.01019 8.96141 2.9228 9.29149C2.83542 9.62157 2.81309 9.96587 2.85709 10.3047C2.90109 10.6435 3.01056 10.9703 3.17924 11.2662L3.56416 11.938C3.11367 11.936 2.67078 12.0556 2.28111 12.2847C1.69315 12.6314 1.26428 13.1995 1.08802 13.8653C0.911762 14.5311 1.00241 15.2405 1.34021 15.8389L5.29627 22.7846C6.0914 24.1733 7.25993 25.3041 8.66544 26.045C10.071 26.786 11.6554 27.1064 13.2339 26.9689C14.8124 26.8314 16.3197 26.2417 17.5798 25.2687C18.84 24.2956 19.801 22.9793 20.3507 21.4735C21.711 20.1631 22.5987 18.4285 22.872 16.5468C23.1453 14.6651 22.7884 12.7448 21.8583 11.0928L20.0406 7.90711ZM10.4605 5.93501C10.5043 5.7712 10.5797 5.61786 10.6825 5.48392C10.7853 5.34997 10.9134 5.2381 11.0593 5.15483C11.2053 5.06936 11.3665 5.01389 11.5337 4.99159C11.7008 4.96929 11.8707 4.98061 12.0336 5.02489C12.1964 5.06917 12.3491 5.14554 12.4828 5.24965C12.6165 5.35375 12.7286 5.48355 12.8128 5.63161L15.2399 9.87922C14.9535 9.93694 14.6788 10.0432 14.4273 10.1935C14.0318 10.4158 13.7058 10.7462 13.4864 11.147L11.8184 8.21051C11.5619 7.77068 11.1874 7.41371 10.7385 7.18112L10.5888 6.93189C10.4193 6.62931 10.3733 6.27154 10.4605 5.93501ZM6.26925 6.39011C6.33453 6.14116 6.47131 5.91747 6.66222 5.74742C6.85313 5.57737 7.08958 5.46861 7.34158 5.43495C7.59357 5.40128 7.84975 5.44423 8.07763 5.55834C8.3055 5.67244 8.4948 5.85257 8.62151 6.07587L9.12403 6.95357C8.74896 7.02388 8.39408 7.17805 8.0852 7.40485C7.77632 7.63166 7.52122 7.9254 7.33846 8.26469C7.12045 8.00199 6.85104 7.78799 6.54724 7.63622L6.39756 7.37616C6.22866 7.07731 6.18257 6.72311 6.26925 6.39011ZM16.0525 24.7459C14.4313 25.6933 12.5056 25.9504 10.6976 25.4608C8.88967 24.9713 7.3471 23.775 6.40825 22.1344L2.45218 15.1887C2.36794 15.0407 2.31328 14.8774 2.29133 14.708C2.26938 14.5386 2.28056 14.3665 2.32425 14.2015C2.36793 14.0364 2.44326 13.8818 2.54593 13.7462C2.64861 13.6107 2.77661 13.497 2.92263 13.4117C3.06866 13.3263 3.22985 13.2709 3.397 13.2486C3.56415 13.2264 3.73399 13.2377 3.89682 13.282C4.05965 13.3263 4.21227 13.4026 4.34599 13.5067C4.4797 13.6107 4.59189 13.7404 4.67613 13.8884L7.24223 18.3961C7.29857 18.495 7.37962 18.5771 7.47722 18.6342C7.57482 18.6912 7.68554 18.7213 7.79822 18.7212C7.91054 18.7194 8.0207 18.6896 8.11898 18.6345C8.19203 18.5918 8.25606 18.535 8.30742 18.4673C8.35879 18.3995 8.39647 18.3222 8.41831 18.2396C8.44016 18.1571 8.44574 18.071 8.43474 17.9863C8.42374 17.9016 8.39637 17.8199 8.3542 17.746L4.29122 10.616C4.12108 10.3172 4.07506 9.96204 4.16328 9.62877C4.25151 9.29551 4.46676 9.01141 4.76167 8.83898C5.05658 8.66656 5.40701 8.61992 5.73585 8.70933C6.0647 8.79874 6.34503 9.01688 6.51517 9.31576L10.5782 16.4457C10.6203 16.5197 10.6764 16.5845 10.7432 16.6366C10.8101 16.6886 10.8864 16.7268 10.9678 16.7489C11.0492 16.771 11.1341 16.7767 11.2177 16.7656C11.3013 16.7544 11.3819 16.7267 11.4549 16.6841C11.5279 16.6414 11.5919 16.5845 11.6433 16.5168C11.6946 16.449 11.7323 16.3717 11.7541 16.2892C11.7759 16.2067 11.7815 16.1206 11.7706 16.0359C11.7596 15.9512 11.7323 15.8695 11.6901 15.7955L8.48251 10.1609C8.31361 9.86209 8.26752 9.5079 8.3542 9.17489C8.39665 9.00913 8.47152 8.85369 8.57438 8.71781C8.67723 8.58193 8.80597 8.46837 8.95296 8.38388C9.24848 8.21415 9.59801 8.16902 9.92608 8.25822C10.2542 8.34742 10.5345 8.56381 10.7065 8.86066L15.1971 16.7491C15.2535 16.848 15.3345 16.9301 15.4321 16.9871C15.5297 17.0442 15.6404 17.0742 15.7531 17.0741C15.8653 17.0711 15.9751 17.0414 16.0739 16.9875C16.2193 16.8993 16.3251 16.7573 16.369 16.5915C16.4129 16.4256 16.3914 16.249 16.3091 16.0989L14.5984 13.0866C14.5143 12.9395 14.4597 12.7769 14.4379 12.6083C14.416 12.4397 14.4273 12.2684 14.471 12.1043C14.5147 11.9401 14.5901 11.7864 14.6927 11.6518C14.7953 11.5173 14.9231 11.4046 15.0688 11.3204C15.213 11.2332 15.3729 11.1761 15.5391 11.1524C15.7053 11.1287 15.8745 11.1388 16.0368 11.1822C16.1991 11.2256 16.3513 11.3014 16.4843 11.4051C16.6173 11.5089 16.7286 11.6384 16.8116 11.7863L18.6293 14.9829C19.0933 15.7952 19.3948 16.6923 19.5165 17.6228C19.6381 18.5533 19.5775 19.499 19.3382 20.4058C19.0989 21.3125 18.6855 22.1626 18.1217 22.9073C17.5579 23.652 16.8548 24.2768 16.0525 24.7459ZM20.8639 18.667C20.8878 17.1454 20.4995 15.6463 19.7413 14.3327L17.9236 11.1362C17.6736 10.6976 17.3018 10.3434 16.8544 10.1176L16.7047 9.85754C16.6183 9.71068 16.5623 9.54747 16.5402 9.37793C16.5182 9.20838 16.5305 9.03605 16.5764 8.87149C16.6188 8.70573 16.6937 8.55029 16.7966 8.41441C16.8994 8.27853 17.0282 8.16497 17.1752 8.08048C17.4707 7.91075 17.8202 7.86562 18.1483 7.95482C18.4764 8.04402 18.7567 8.26041 18.9287 8.55725L20.7463 11.743C21.3372 12.7945 21.6576 13.9798 21.6782 15.1898C21.6987 16.3997 21.4187 17.5954 20.8639 18.667ZM17.5387 3.08521L17.9878 1.40567C18.0466 1.25861 18.1566 1.13846 18.2968 1.06787C18.4371 0.99727 18.598 0.981102 18.7492 1.02241C18.9004 1.06371 19.0314 1.15964 19.1177 1.29211C19.2039 1.42458 19.2394 1.58445 19.2173 1.74157L18.779 3.42111C18.7431 3.55943 18.6625 3.68156 18.5501 3.76799C18.4377 3.85442 18.2999 3.90016 18.1588 3.89789C18.1045 3.90134 18.05 3.89398 17.9984 3.87622C17.8341 3.83287 17.6934 3.72527 17.6073 3.577C17.5211 3.42873 17.4964 3.25188 17.5387 3.08521ZM20.3293 4.14711L21.3023 2.72763C21.4001 2.58537 21.5497 2.48833 21.7181 2.45785C21.8866 2.42737 22.0601 2.46594 22.2004 2.56509C22.3408 2.66424 22.4365 2.81583 22.4666 2.98653C22.4967 3.15723 22.4586 3.33304 22.3608 3.47529L21.3771 4.89477C21.3193 4.98166 21.2412 5.0528 21.1499 5.10193C21.0585 5.15106 20.9566 5.17667 20.8532 5.1765C20.7199 5.17341 20.5901 5.13209 20.479 5.05731C20.3419 4.95533 20.2495 4.8031 20.2215 4.63306C20.1935 4.46303 20.2322 4.28865 20.3293 4.14711ZM24.7238 6.19506L23.3231 7.18112C23.2144 7.26084 23.0831 7.30266 22.9489 7.30031C22.8132 7.29888 22.6816 7.25393 22.5727 7.17191C22.4639 7.08989 22.3835 6.97502 22.3431 6.8438C22.3027 6.71258 22.3044 6.57176 22.3479 6.44157C22.3914 6.31139 22.4746 6.19853 22.5853 6.11921L23.986 5.12233C24.1264 5.02318 24.2999 4.9846 24.4683 5.01508C24.6367 5.04557 24.7863 5.14261 24.8841 5.28486C24.982 5.42712 25.02 5.60293 24.99 5.77362C24.9599 5.94432 24.8641 6.09592 24.7238 6.19506Z" fill="black" fill-opacity="0.2"/>
<path d="M20.0406 7.90711C19.6992 7.30925 19.1378 6.87288 18.4796 6.69351C18.1545 6.60292 17.8149 6.57926 17.4806 6.62393C17.1464 6.66859 16.8244 6.78068 16.5336 6.95357C16.1427 7.18204 15.8182 7.51095 15.5927 7.90711L13.9248 4.98146C13.7564 4.68534 13.5321 4.42576 13.2647 4.21755C12.9973 4.00934 12.692 3.85659 12.3663 3.76803C12.0406 3.67947 11.7008 3.65684 11.3665 3.70143C11.0322 3.74603 10.7098 3.85697 10.4178 4.02792C10.0114 4.26253 9.678 4.60789 9.45549 5.0248C9.15075 4.66554 8.75497 4.39746 8.31088 4.24952C7.86678 4.10157 7.39124 4.07938 6.93561 4.18534C6.47998 4.2913 6.06156 4.52138 5.72554 4.85074C5.38952 5.1801 5.14866 5.59623 5.02897 6.0542C4.91117 6.49044 4.91117 6.95075 5.02897 7.38699C4.7077 7.43298 4.39872 7.5435 4.12015 7.71207C3.82795 7.88269 3.57181 8.11 3.36636 8.38101C3.16091 8.65201 3.01019 8.96141 2.9228 9.29149C2.83542 9.62157 2.81309 9.96587 2.85709 10.3047C2.90109 10.6435 3.01056 10.9703 3.17924 11.2662L3.56416 11.938C3.11367 11.936 2.67078 12.0556 2.28111 12.2847C1.69315 12.6314 1.26428 13.1995 1.08802 13.8653C0.911762 14.5311 1.00241 15.2405 1.34021 15.8389L5.29627 22.7846C6.0914 24.1733 7.25993 25.3041 8.66544 26.045C10.071 26.786 11.6554 27.1064 13.2339 26.9689C14.8124 26.8314 16.3197 26.2417 17.5798 25.2687C18.84 24.2956 19.801 22.9793 20.3507 21.4735C21.711 20.1631 22.5987 18.4285 22.872 16.5468C23.1453 14.6651 22.7884 12.7448 21.8583 11.0928L20.0406 7.90711ZM10.4605 5.93501C10.5043 5.7712 10.5797 5.61786 10.6825 5.48392C10.7853 5.34997 10.9134 5.2381 11.0593 5.15483C11.2053 5.06936 11.3665 5.01389 11.5337 4.99159C11.7008 4.96929 11.8707 4.98061 12.0336 5.02489C12.1964 5.06917 12.3491 5.14554 12.4828 5.24965C12.6165 5.35375 12.7286 5.48355 12.8128 5.63161L15.2399 9.87922C14.9535 9.93694 14.6788 10.0432 14.4273 10.1935C14.0318 10.4158 13.7058 10.7462 13.4864 11.147L11.8184 8.21051C11.5619 7.77068 11.1874 7.41371 10.7385 7.18112L10.5888 6.93189C10.4193 6.62931 10.3733 6.27154 10.4605 5.93501ZM6.26925 6.39011C6.33453 6.14116 6.47131 5.91747 6.66222 5.74742C6.85313 5.57737 7.08958 5.46861 7.34158 5.43495C7.59357 5.40128 7.84975 5.44423 8.07763 5.55834C8.3055 5.67244 8.4948 5.85257 8.62151 6.07587L9.12403 6.95357C8.74896 7.02388 8.39408 7.17805 8.0852 7.40485C7.77632 7.63166 7.52122 7.9254 7.33846 8.26469C7.12045 8.00199 6.85104 7.78799 6.54724 7.63622L6.39756 7.37616C6.22866 7.07731 6.18257 6.72311 6.26925 6.39011ZM16.0525 24.7459C14.4313 25.6933 12.5056 25.9504 10.6976 25.4608C8.88967 24.9713 7.3471 23.775 6.40825 22.1344L2.45218 15.1887C2.36794 15.0407 2.31328 14.8774 2.29133 14.708C2.26938 14.5386 2.28056 14.3665 2.32425 14.2015C2.36793 14.0364 2.44326 13.8818 2.54593 13.7462C2.64861 13.6107 2.77661 13.497 2.92263 13.4117C3.06866 13.3263 3.22985 13.2709 3.397 13.2486C3.56415 13.2264 3.73399 13.2377 3.89682 13.282C4.05965 13.3263 4.21227 13.4026 4.34599 13.5067C4.4797 13.6107 4.59189 13.7404 4.67613 13.8884L7.24223 18.3961C7.29857 18.495 7.37962 18.5771 7.47722 18.6342C7.57482 18.6912 7.68554 18.7213 7.79822 18.7212C7.91054 18.7194 8.0207 18.6896 8.11898 18.6345C8.19203 18.5918 8.25606 18.535 8.30742 18.4673C8.35879 18.3995 8.39647 18.3222 8.41831 18.2396C8.44016 18.1571 8.44574 18.071 8.43474 17.9863C8.42374 17.9016 8.39637 17.8199 8.3542 17.746L4.29122 10.616C4.12108 10.3172 4.07506 9.96204 4.16328 9.62877C4.25151 9.29551 4.46676 9.01141 4.76167 8.83898C5.05658 8.66656 5.40701 8.61992 5.73585 8.70933C6.0647 8.79874 6.34503 9.01688 6.51517 9.31576L10.5782 16.4457C10.6203 16.5197 10.6764 16.5845 10.7432 16.6366C10.8101 16.6886 10.8864 16.7268 10.9678 16.7489C11.0492 16.771 11.1341 16.7767 11.2177 16.7656C11.3013 16.7544 11.3819 16.7267 11.4549 16.6841C11.5279 16.6414 11.5919 16.5845 11.6433 16.5168C11.6946 16.449 11.7323 16.3717 11.7541 16.2892C11.7759 16.2067 11.7815 16.1206 11.7706 16.0359C11.7596 15.9512 11.7323 15.8695 11.6901 15.7955L8.48251 10.1609C8.31361 9.86209 8.26752 9.5079 8.3542 9.17489C8.39665 9.00913 8.47152 8.85369 8.57438 8.71781C8.67723 8.58193 8.80597 8.46837 8.95296 8.38388C9.24848 8.21415 9.59801 8.16902 9.92608 8.25822C10.2542 8.34742 10.5345 8.56381 10.7065 8.86066L15.1971 16.7491C15.2535 16.848 15.3345 16.9301 15.4321 16.9871C15.5297 17.0442 15.6404 17.0742 15.7531 17.0741C15.8653 17.0711 15.9751 17.0414 16.0739 16.9875C16.2193 16.8993 16.3251 16.7573 16.369 16.5915C16.4129 16.4256 16.3914 16.249 16.3091 16.0989L14.5984 13.0866C14.5143 12.9395 14.4597 12.7769 14.4379 12.6083C14.416 12.4397 14.4273 12.2684 14.471 12.1043C14.5147 11.9401 14.5901 11.7864 14.6927 11.6518C14.7953 11.5173 14.9231 11.4046 15.0688 11.3204C15.213 11.2332 15.3729 11.1761 15.5391 11.1524C15.7053 11.1287 15.8745 11.1388 16.0368 11.1822C16.1991 11.2256 16.3513 11.3014 16.4843 11.4051C16.6173 11.5089 16.7286 11.6384 16.8116 11.7863L18.6293 14.9829C19.0933 15.7952 19.3948 16.6923 19.5165 17.6228C19.6381 18.5533 19.5775 19.499 19.3382 20.4058C19.0989 21.3125 18.6855 22.1626 18.1217 22.9073C17.5579 23.652 16.8548 24.2768 16.0525 24.7459ZM20.8639 18.667C20.8878 17.1454 20.4995 15.6463 19.7413 14.3327L17.9236 11.1362C17.6736 10.6976 17.3018 10.3434 16.8544 10.1176L16.7047 9.85754C16.6183 9.71068 16.5623 9.54747 16.5402 9.37793C16.5182 9.20838 16.5305 9.03605 16.5764 8.87149C16.6188 8.70573 16.6937 8.55029 16.7966 8.41441C16.8994 8.27853 17.0282 8.16497 17.1752 8.08048C17.4707 7.91075 17.8202 7.86562 18.1483 7.95482C18.4764 8.04402 18.7567 8.26041 18.9287 8.55725L20.7463 11.743C21.3372 12.7945 21.6576 13.9798 21.6782 15.1898C21.6987 16.3997 21.4187 17.5954 20.8639 18.667ZM17.5387 3.08521L17.9878 1.40567C18.0466 1.25861 18.1566 1.13846 18.2968 1.06787C18.4371 0.99727 18.598 0.981102 18.7492 1.02241C18.9004 1.06371 19.0314 1.15964 19.1177 1.29211C19.2039 1.42458 19.2394 1.58445 19.2173 1.74157L18.779 3.42111C18.7431 3.55943 18.6625 3.68156 18.5501 3.76799C18.4377 3.85442 18.2999 3.90016 18.1588 3.89789C18.1045 3.90134 18.05 3.89398 17.9984 3.87622C17.8341 3.83287 17.6934 3.72527 17.6073 3.577C17.5211 3.42873 17.4964 3.25188 17.5387 3.08521ZM20.3293 4.14711L21.3023 2.72763C21.4001 2.58537 21.5497 2.48833 21.7181 2.45785C21.8866 2.42737 22.0601 2.46594 22.2004 2.56509C22.3408 2.66424 22.4365 2.81583 22.4666 2.98653C22.4967 3.15723 22.4586 3.33304 22.3608 3.47529L21.3771 4.89477C21.3193 4.98166 21.2412 5.0528 21.1499 5.10193C21.0585 5.15106 20.9566 5.17667 20.8532 5.1765C20.7199 5.17341 20.5901 5.13209 20.479 5.05731C20.3419 4.95533 20.2495 4.8031 20.2215 4.63306C20.1935 4.46303 20.2322 4.28865 20.3293 4.14711ZM24.7238 6.19506L23.3231 7.18112C23.2144 7.26084 23.0831 7.30266 22.9489 7.30031C22.8132 7.29888 22.6816 7.25393 22.5727 7.17191C22.4639 7.08989 22.3835 6.97502 22.3431 6.8438C22.3027 6.71258 22.3044 6.57176 22.3479 6.44157C22.3914 6.31139 22.4746 6.19853 22.5853 6.11921L23.986 5.12233C24.1264 5.02318 24.2999 4.9846 24.4683 5.01508C24.6367 5.04557 24.7863 5.14261 24.8841 5.28486C24.982 5.42712 25.02 5.60293 24.99 5.77362C24.9599 5.94432 24.8641 6.09592 24.7238 6.19506Z" stroke="black" stroke-width="0.4" mask="url(#path-1-outside-1_147_2671)"/>
<path d="M20.0406 7.90711C19.6992 7.30925 19.1378 6.87288 18.4796 6.69351C18.1545 6.60292 17.8149 6.57926 17.4806 6.62393C17.1464 6.66859 16.8244 6.78068 16.5336 6.95357C16.1427 7.18204 15.8182 7.51095 15.5927 7.90711L13.9248 4.98146C13.7564 4.68534 13.5321 4.42576 13.2647 4.21755C12.9973 4.00934 12.692 3.85659 12.3663 3.76803C12.0406 3.67947 11.7008 3.65684 11.3665 3.70143C11.0322 3.74603 10.7098 3.85697 10.4178 4.02792C10.0114 4.26253 9.678 4.60789 9.45549 5.0248C9.15075 4.66554 8.75497 4.39746 8.31088 4.24952C7.86678 4.10157 7.39124 4.07938 6.93561 4.18534C6.47998 4.2913 6.06156 4.52138 5.72554 4.85074C5.38952 5.1801 5.14866 5.59623 5.02897 6.0542C4.91117 6.49044 4.91117 6.95075 5.02897 7.38699C4.7077 7.43298 4.39872 7.5435 4.12015 7.71207C3.82795 7.88269 3.57181 8.11 3.36636 8.38101C3.16091 8.65201 3.01019 8.96141 2.9228 9.29149C2.83542 9.62157 2.81309 9.96587 2.85709 10.3047C2.90109 10.6435 3.01056 10.9703 3.17924 11.2662L3.56416 11.938C3.11367 11.936 2.67078 12.0556 2.28111 12.2847C1.69315 12.6314 1.26428 13.1995 1.08802 13.8653C0.911762 14.5311 1.00241 15.2405 1.34021 15.8389L5.29627 22.7846C6.0914 24.1733 7.25993 25.3041 8.66544 26.045C10.071 26.786 11.6554 27.1064 13.2339 26.9689C14.8124 26.8314 16.3197 26.2417 17.5798 25.2687C18.84 24.2956 19.801 22.9793 20.3507 21.4735C21.711 20.1631 22.5987 18.4285 22.872 16.5468C23.1453 14.6651 22.7884 12.7448 21.8583 11.0928L20.0406 7.90711ZM10.4605 5.93501C10.5043 5.7712 10.5797 5.61786 10.6825 5.48392C10.7853 5.34997 10.9134 5.2381 11.0593 5.15483C11.2053 5.06936 11.3665 5.01389 11.5337 4.99159C11.7008 4.96929 11.8707 4.98061 12.0336 5.02489C12.1964 5.06917 12.3491 5.14554 12.4828 5.24965C12.6165 5.35375 12.7286 5.48355 12.8128 5.63161L15.2399 9.87922C14.9535 9.93694 14.6788 10.0432 14.4273 10.1935C14.0318 10.4158 13.7058 10.7462 13.4864 11.147L11.8184 8.21051C11.5619 7.77068 11.1874 7.41371 10.7385 7.18112L10.5888 6.93189C10.4193 6.62931 10.3733 6.27154 10.4605 5.93501ZM6.26925 6.39011C6.33453 6.14116 6.47131 5.91747 6.66222 5.74742C6.85313 5.57737 7.08958 5.46861 7.34158 5.43495C7.59357 5.40128 7.84975 5.44423 8.07763 5.55834C8.3055 5.67244 8.4948 5.85257 8.62151 6.07587L9.12403 6.95357C8.74896 7.02388 8.39408 7.17805 8.0852 7.40485C7.77632 7.63166 7.52122 7.9254 7.33846 8.26469C7.12045 8.00199 6.85104 7.78799 6.54724 7.63622L6.39756 7.37616C6.22866 7.07731 6.18257 6.72311 6.26925 6.39011ZM16.0525 24.7459C14.4313 25.6933 12.5056 25.9504 10.6976 25.4608C8.88967 24.9713 7.3471 23.775 6.40825 22.1344L2.45218 15.1887C2.36794 15.0407 2.31328 14.8774 2.29133 14.708C2.26938 14.5386 2.28056 14.3665 2.32425 14.2015C2.36793 14.0364 2.44326 13.8818 2.54593 13.7462C2.64861 13.6107 2.77661 13.497 2.92263 13.4117C3.06866 13.3263 3.22985 13.2709 3.397 13.2486C3.56415 13.2264 3.73399 13.2377 3.89682 13.282C4.05965 13.3263 4.21227 13.4026 4.34599 13.5067C4.4797 13.6107 4.59189 13.7404 4.67613 13.8884L7.24223 18.3961C7.29857 18.495 7.37962 18.5771 7.47722 18.6342C7.57482 18.6912 7.68554 18.7213 7.79822 18.7212C7.91054 18.7194 8.0207 18.6896 8.11898 18.6345C8.19203 18.5918 8.25606 18.535 8.30742 18.4673C8.35879 18.3995 8.39647 18.3222 8.41831 18.2396C8.44016 18.1571 8.44574 18.071 8.43474 17.9863C8.42374 17.9016 8.39637 17.8199 8.3542 17.746L4.29122 10.616C4.12108 10.3172 4.07506 9.96204 4.16328 9.62877C4.25151 9.29551 4.46676 9.01141 4.76167 8.83898C5.05658 8.66656 5.40701 8.61992 5.73585 8.70933C6.0647 8.79874 6.34503 9.01688 6.51517 9.31576L10.5782 16.4457C10.6203 16.5197 10.6764 16.5845 10.7432 16.6366C10.8101 16.6886 10.8864 16.7268 10.9678 16.7489C11.0492 16.771 11.1341 16.7767 11.2177 16.7656C11.3013 16.7544 11.3819 16.7267 11.4549 16.6841C11.5279 16.6414 11.5919 16.5845 11.6433 16.5168C11.6946 16.449 11.7323 16.3717 11.7541 16.2892C11.7759 16.2067 11.7815 16.1206 11.7706 16.0359C11.7596 15.9512 11.7323 15.8695 11.6901 15.7955L8.48251 10.1609C8.31361 9.86209 8.26752 9.5079 8.3542 9.17489C8.39665 9.00913 8.47152 8.85369 8.57438 8.71781C8.67723 8.58193 8.80597 8.46837 8.95296 8.38388C9.24848 8.21415 9.59801 8.16902 9.92608 8.25822C10.2542 8.34742 10.5345 8.56381 10.7065 8.86066L15.1971 16.7491C15.2535 16.848 15.3345 16.9301 15.4321 16.9871C15.5297 17.0442 15.6404 17.0742 15.7531 17.0741C15.8653 17.0711 15.9751 17.0414 16.0739 16.9875C16.2193 16.8993 16.3251 16.7573 16.369 16.5915C16.4129 16.4256 16.3914 16.249 16.3091 16.0989L14.5984 13.0866C14.5143 12.9395 14.4597 12.7769 14.4379 12.6083C14.416 12.4397 14.4273 12.2684 14.471 12.1043C14.5147 11.9401 14.5901 11.7864 14.6927 11.6518C14.7953 11.5173 14.9231 11.4046 15.0688 11.3204C15.213 11.2332 15.3729 11.1761 15.5391 11.1524C15.7053 11.1287 15.8745 11.1388 16.0368 11.1822C16.1991 11.2256 16.3513 11.3014 16.4843 11.4051C16.6173 11.5089 16.7286 11.6384 16.8116 11.7863L18.6293 14.9829C19.0933 15.7952 19.3948 16.6923 19.5165 17.6228C19.6381 18.5533 19.5775 19.499 19.3382 20.4058C19.0989 21.3125 18.6855 22.1626 18.1217 22.9073C17.5579 23.652 16.8548 24.2768 16.0525 24.7459ZM20.8639 18.667C20.8878 17.1454 20.4995 15.6463 19.7413 14.3327L17.9236 11.1362C17.6736 10.6976 17.3018 10.3434 16.8544 10.1176L16.7047 9.85754C16.6183 9.71068 16.5623 9.54747 16.5402 9.37793C16.5182 9.20838 16.5305 9.03605 16.5764 8.87149C16.6188 8.70573 16.6937 8.55029 16.7966 8.41441C16.8994 8.27853 17.0282 8.16497 17.1752 8.08048C17.4707 7.91075 17.8202 7.86562 18.1483 7.95482C18.4764 8.04402 18.7567 8.26041 18.9287 8.55725L20.7463 11.743C21.3372 12.7945 21.6576 13.9798 21.6782 15.1898C21.6987 16.3997 21.4187 17.5954 20.8639 18.667ZM17.5387 3.08521L17.9878 1.40567C18.0466 1.25861 18.1566 1.13846 18.2968 1.06787C18.4371 0.99727 18.598 0.981102 18.7492 1.02241C18.9004 1.06371 19.0314 1.15964 19.1177 1.29211C19.2039 1.42458 19.2394 1.58445 19.2173 1.74157L18.779 3.42111C18.7431 3.55943 18.6625 3.68156 18.5501 3.76799C18.4377 3.85442 18.2999 3.90016 18.1588 3.89789C18.1045 3.90134 18.05 3.89398 17.9984 3.87622C17.8341 3.83287 17.6934 3.72527 17.6073 3.577C17.5211 3.42873 17.4964 3.25188 17.5387 3.08521ZM20.3293 4.14711L21.3023 2.72763C21.4001 2.58537 21.5497 2.48833 21.7181 2.45785C21.8866 2.42737 22.0601 2.46594 22.2004 2.56509C22.3408 2.66424 22.4365 2.81583 22.4666 2.98653C22.4967 3.15723 22.4586 3.33304 22.3608 3.47529L21.3771 4.89477C21.3193 4.98166 21.2412 5.0528 21.1499 5.10193C21.0585 5.15106 20.9566 5.17667 20.8532 5.1765C20.7199 5.17341 20.5901 5.13209 20.479 5.05731C20.3419 4.95533 20.2495 4.8031 20.2215 4.63306C20.1935 4.46303 20.2322 4.28865 20.3293 4.14711ZM24.7238 6.19506L23.3231 7.18112C23.2144 7.26084 23.0831 7.30266 22.9489 7.30031C22.8132 7.29888 22.6816 7.25393 22.5727 7.17191C22.4639 7.08989 22.3835 6.97502 22.3431 6.8438C22.3027 6.71258 22.3044 6.57176 22.3479 6.44157C22.3914 6.31139 22.4746 6.19853 22.5853 6.11921L23.986 5.12233C24.1264 5.02318 24.2999 4.9846 24.4683 5.01508C24.6367 5.04557 24.7863 5.14261 24.8841 5.28486C24.982 5.42712 25.02 5.60293 24.99 5.77362C24.9599 5.94432 24.8641 6.09592 24.7238 6.19506Z" stroke="black" stroke-opacity="0.2" stroke-width="0.4" mask="url(#path-1-outside-1_147_2671)"/>
</svg>
