<svg width="41" height="40" viewBox="0 0 41 40" fill="none" xmlns="http://www.w3.org/2000/svg">
<g clip-path="url(#clip0_142_2866)">
<path fill-rule="evenodd" clip-rule="evenodd" d="M21.9972 18.5027L21.9972 9.17905C21.9972 8.99515 21.9611 8.81304 21.8907 8.64312C21.8204 8.4732 21.7173 8.3188 21.5873 8.18872C21.4573 8.05865 21.303 7.95545 21.1331 7.88503C20.9632 7.8146 20.7811 7.77833 20.5972 7.77827C20.4133 7.77822 20.2312 7.81439 20.0613 7.88471C19.8914 7.95504 19.737 8.05814 19.6069 8.18814C19.4768 8.31814 19.3736 8.47248 19.3032 8.64236C19.2328 8.81224 19.1965 8.99433 19.1965 9.17823L19.1973 18.5027L9.87196 18.5027C9.50876 18.5151 9.16458 18.6681 8.91206 18.9295C8.65955 19.1908 8.51845 19.5401 8.51856 19.9035C8.51867 20.2669 8.65997 20.6161 8.91264 20.8773C9.1653 21.1385 9.50957 21.2913 9.87278 21.3035L19.1973 21.3026L19.1965 30.6271C19.1974 30.9037 19.2801 31.1738 19.4342 31.4035C19.5882 31.6331 19.8068 31.8121 20.0623 31.9179C20.3178 32.0238 20.5989 32.0516 20.8702 31.9981C21.1416 31.9446 21.391 31.812 21.5872 31.6171C21.8404 31.3638 21.9972 31.014 21.9972 30.628L21.9972 21.3026L31.3217 21.3035C31.5056 21.3038 31.6878 21.2678 31.8578 21.1975C32.0278 21.1273 32.1822 21.0242 32.3123 20.8941C32.4423 20.764 32.5454 20.6096 32.6157 20.4396C32.6859 20.2696 32.7219 20.0874 32.7216 19.9035C32.7217 19.7195 32.6856 19.5373 32.6152 19.3673C32.5449 19.1973 32.4417 19.0429 32.3116 18.9128C32.1815 18.7827 32.027 18.6795 31.857 18.6091C31.687 18.5388 31.5048 18.5026 31.3209 18.5027L21.9972 18.5027Z" fill="#FD542E"/>
</g>
<defs>
<clipPath id="clip0_142_2866">
<rect width="28" height="28" fill="white" transform="translate(0.700928 20) rotate(-45)"/>
</clipPath>
</defs>
</svg>
