<svg width="18" height="4" viewBox="0 0 18 4" fill="none" xmlns="http://www.w3.org/2000/svg">
<path d="M3 2C3 2.41421 2.66421 2.75 2.25 2.75C1.83579 2.75 1.5 2.41421 1.5 2C1.5 1.58579 1.83579 1.25 2.25 1.25C2.66421 1.25 3 1.58579 3 2ZM9.75 2C9.75 2.41421 9.41421 2.75 9 2.75C8.58579 2.75 8.25 2.41421 8.25 2C8.25 1.58579 8.58579 1.25 9 1.25C9.41421 1.25 9.75 1.58579 9.75 2ZM16.5 2C16.5 2.41421 16.1642 2.75 15.75 2.75C15.3358 2.75 15 2.41421 15 2C15 1.58579 15.3358 1.25 15.75 1.25C16.1642 1.25 16.5 1.58579 16.5 2Z" stroke="black" stroke-width="1.5" stroke-linejoin="round"/>
<path d="M3 2C3 2.41421 2.66421 2.75 2.25 2.75C1.83579 2.75 1.5 2.41421 1.5 2C1.5 1.58579 1.83579 1.25 2.25 1.25C2.66421 1.25 3 1.58579 3 2ZM9.75 2C9.75 2.41421 9.41421 2.75 9 2.75C8.58579 2.75 8.25 2.41421 8.25 2C8.25 1.58579 8.58579 1.25 9 1.25C9.41421 1.25 9.75 1.58579 9.75 2ZM16.5 2C16.5 2.41421 16.1642 2.75 15.75 2.75C15.3358 2.75 15 2.41421 15 2C15 1.58579 15.3358 1.25 15.75 1.25C16.1642 1.25 16.5 1.58579 16.5 2Z" stroke="black" stroke-opacity="0.2" stroke-width="1.5" stroke-linejoin="round"/>
</svg>
