<svg width="27" height="17" viewBox="0 0 27 17" fill="none" xmlns="http://www.w3.org/2000/svg">
<path d="M11 16C11 14.4316 13.0994 11.0608 18.5 11.0608C23.9006 11.0608 26 14.4316 26 15.9992M18.5 8.3585C19.4948 8.3585 20.4488 7.97087 21.1523 7.28087C21.8557 6.59088 22.2509 5.65505 22.2509 4.67925C22.2509 3.70345 21.8557 2.76762 21.1523 2.07763C20.4488 1.38763 19.4948 1 18.5 1C17.5052 1 16.5512 1.38763 15.8477 2.07763C15.1443 2.76762 14.7491 3.70345 14.7491 4.67925C14.7491 5.65505 15.1443 6.59088 15.8477 7.28087C16.5512 7.97087 17.5052 8.3585 18.5 8.3585Z" stroke="black" stroke-width="2" stroke-linecap="round"/>
<path d="M11 16C11 14.4316 13.0994 11.0608 18.5 11.0608C23.9006 11.0608 26 14.4316 26 15.9992M18.5 8.3585C19.4948 8.3585 20.4488 7.97087 21.1523 7.28087C21.8557 6.59088 22.2509 5.65505 22.2509 4.67925C22.2509 3.70345 21.8557 2.76762 21.1523 2.07763C20.4488 1.38763 19.4948 1 18.5 1C17.5052 1 16.5512 1.38763 15.8477 2.07763C15.1443 2.76762 14.7491 3.70345 14.7491 4.67925C14.7491 5.65505 15.1443 6.59088 15.8477 7.28087C16.5512 7.97087 17.5052 8.3585 18.5 8.3585Z" stroke="black" stroke-opacity="0.2" stroke-width="2" stroke-linecap="round"/>
<path fill-rule="evenodd" clip-rule="evenodd" d="M7.25075 8.45217C8.1129 8.45217 8.93974 8.11228 9.54937 7.50727C10.159 6.90226 10.5015 6.08169 10.5015 5.22608C10.5015 4.37047 10.159 3.54991 9.54937 2.9449C8.93974 2.33989 8.1129 2 7.25075 2C6.3886 2 5.56176 2.33989 4.95212 2.9449C4.34249 3.54991 4 4.37047 4 5.22608C4 6.08169 4.34249 6.90226 4.95212 7.50727C5.56176 8.11228 6.3886 8.45217 7.25075 8.45217Z" stroke="black" stroke-width="2" stroke-linecap="round"/>
<path fill-rule="evenodd" clip-rule="evenodd" d="M7.25075 8.45217C8.1129 8.45217 8.93974 8.11228 9.54937 7.50727C10.159 6.90226 10.5015 6.08169 10.5015 5.22608C10.5015 4.37047 10.159 3.54991 9.54937 2.9449C8.93974 2.33989 8.1129 2 7.25075 2C6.3886 2 5.56176 2.33989 4.95212 2.9449C4.34249 3.54991 4 4.37047 4 5.22608C4 6.08169 4.34249 6.90226 4.95212 7.50727C5.56176 8.11228 6.3886 8.45217 7.25075 8.45217Z" stroke="black" stroke-opacity="0.2" stroke-width="2" stroke-linecap="round"/>
<path d="M1 16C1.26091 14.6848 2.0415 12.8885 3.89068 11.9531C5.95983 10.9064 8.17765 11.0378 9.39062 11.3101" stroke="black" stroke-width="2" stroke-linecap="round"/>
<path d="M1 16C1.26091 14.6848 2.0415 12.8885 3.89068 11.9531C5.95983 10.9064 8.17765 11.0378 9.39062 11.3101" stroke="black" stroke-opacity="0.2" stroke-width="2" stroke-linecap="round"/>
</svg>
