<svg width="25" height="17" viewBox="0 0 25 17" fill="none" xmlns="http://www.w3.org/2000/svg">
<path d="M1.5 16C1.5 14.3512 3.69083 10.8075 9.32658 10.8075C14.9623 10.8075 17.1532 14.3512 17.1532 15.9991M9.32658 8.73586C10.3647 8.73586 11.3603 8.32835 12.0943 7.60297C12.8284 6.87759 13.2408 5.89377 13.2408 4.86793C13.2408 3.84209 12.8284 2.85827 12.0943 2.13289C11.3603 1.40751 10.3647 1 9.32658 1C8.28847 1 7.29288 1.40751 6.55883 2.13289C5.82478 2.85827 5.41239 3.84209 5.41239 4.86793C5.41239 5.89377 5.82478 6.87759 6.55883 7.60297C7.29288 8.32835 8.28847 8.73586 9.32658 8.73586Z" stroke="#FD542E" stroke-width="1.5" stroke-linecap="round"/>
<path d="M23.5 8.66681H18.1429" stroke="#FD542E" stroke-width="1.5" stroke-linecap="round"/>
<path d="M18.143 8.6666L19.9287 6.52374" stroke="#FD542E" stroke-width="1.5" stroke-linecap="round"/>
<path d="M18.143 8.66677L19.9287 10.8096" stroke="#FD542E" stroke-width="1.5" stroke-linecap="round"/>
</svg>
