<svg width="24" height="24" viewBox="0 0 24 24" fill="none" xmlns="http://www.w3.org/2000/svg">
<path d="M14.4242 3.81818C14.4242 2.81403 13.6102 2 12.6061 2H11.3939C10.3898 2 9.57576 2.81403 9.57576 3.81818V4.68422C9.57576 5.22416 8.92295 5.49456 8.54115 5.11277L7.92878 4.5004C7.21874 3.79036 6.06753 3.79036 5.35749 4.5004L4.50039 5.3575C3.79034 6.06755 3.79034 7.21876 4.50039 7.9288L5.11274 8.54115C5.49453 8.92294 5.22413 9.57576 4.68419 9.57576L3.81818 9.57576C2.81403 9.57576 2 10.3898 2 11.3939L2 12.6061C2 13.6102 2.81403 14.4242 3.81818 14.4242H4.68415C5.22409 14.4242 5.4945 15.0771 5.1127 15.4589L4.50038 16.0712C3.79034 16.7812 3.79034 17.9324 4.50038 18.6425L5.35748 19.4996C6.06752 20.2096 7.21873 20.2096 7.92878 19.4996L8.54115 18.8872C8.92294 18.5054 9.57576 18.7758 9.57576 19.3157V20.1818C9.57576 21.186 10.3898 22 11.3939 22H12.6061C13.6102 22 14.4242 21.186 14.4242 20.1818V19.3158C14.4242 18.7759 15.0771 18.5055 15.4589 18.8873L16.0712 19.4996C16.7813 20.2097 17.9325 20.2097 18.6425 19.4996L19.4996 18.6425C20.2097 17.9325 20.2097 16.7813 19.4996 16.0712L18.8872 15.4589C18.5054 15.0771 18.7758 14.4242 19.3158 14.4242H20.1818C21.186 14.4242 22 13.6102 22 12.6061V11.3939C22 10.3898 21.186 9.57576 20.1818 9.57576L19.3157 9.57576C18.7758 9.57576 18.5054 8.92294 18.8872 8.54115L19.4996 7.92873C20.2097 7.21868 20.2097 6.06747 19.4996 5.35743L18.6425 4.50033C17.9325 3.79029 16.7813 3.79029 16.0712 4.50033L15.4589 5.1127C15.0771 5.49449 14.4242 5.22409 14.4242 4.68415V3.81818Z" stroke="black" stroke-width="2" stroke-linejoin="round"/>
<path d="M14.4242 3.81818C14.4242 2.81403 13.6102 2 12.6061 2H11.3939C10.3898 2 9.57576 2.81403 9.57576 3.81818V4.68422C9.57576 5.22416 8.92295 5.49456 8.54115 5.11277L7.92878 4.5004C7.21874 3.79036 6.06753 3.79036 5.35749 4.5004L4.50039 5.3575C3.79034 6.06755 3.79034 7.21876 4.50039 7.9288L5.11274 8.54115C5.49453 8.92294 5.22413 9.57576 4.68419 9.57576L3.81818 9.57576C2.81403 9.57576 2 10.3898 2 11.3939L2 12.6061C2 13.6102 2.81403 14.4242 3.81818 14.4242H4.68415C5.22409 14.4242 5.4945 15.0771 5.1127 15.4589L4.50038 16.0712C3.79034 16.7812 3.79034 17.9324 4.50038 18.6425L5.35748 19.4996C6.06752 20.2096 7.21873 20.2096 7.92878 19.4996L8.54115 18.8872C8.92294 18.5054 9.57576 18.7758 9.57576 19.3157V20.1818C9.57576 21.186 10.3898 22 11.3939 22H12.6061C13.6102 22 14.4242 21.186 14.4242 20.1818V19.3158C14.4242 18.7759 15.0771 18.5055 15.4589 18.8873L16.0712 19.4996C16.7813 20.2097 17.9325 20.2097 18.6425 19.4996L19.4996 18.6425C20.2097 17.9325 20.2097 16.7813 19.4996 16.0712L18.8872 15.4589C18.5054 15.0771 18.7758 14.4242 19.3158 14.4242H20.1818C21.186 14.4242 22 13.6102 22 12.6061V11.3939C22 10.3898 21.186 9.57576 20.1818 9.57576L19.3157 9.57576C18.7758 9.57576 18.5054 8.92294 18.8872 8.54115L19.4996 7.92873C20.2097 7.21868 20.2097 6.06747 19.4996 5.35743L18.6425 4.50033C17.9325 3.79029 16.7813 3.79029 16.0712 4.50033L15.4589 5.1127C15.0771 5.49449 14.4242 5.22409 14.4242 4.68415V3.81818Z" stroke="black" stroke-opacity="0.2" stroke-width="2" stroke-linejoin="round"/>
<path d="M15.3333 12C15.3333 13.8409 13.8409 15.3333 12 15.3333C10.1591 15.3333 8.66667 13.8409 8.66667 12C8.66667 10.1591 10.1591 8.66667 12 8.66667C13.8409 8.66667 15.3333 10.1591 15.3333 12Z" stroke="black" stroke-width="2" stroke-linejoin="round"/>
<path d="M15.3333 12C15.3333 13.8409 13.8409 15.3333 12 15.3333C10.1591 15.3333 8.66667 13.8409 8.66667 12C8.66667 10.1591 10.1591 8.66667 12 8.66667C13.8409 8.66667 15.3333 10.1591 15.3333 12Z" stroke="black" stroke-opacity="0.2" stroke-width="2" stroke-linejoin="round"/>
</svg>
