<svg width="24" height="25" viewBox="0 0 24 25" fill="none" xmlns="http://www.w3.org/2000/svg">
<path d="M2.09998 15.3568L8.39998 10.1568L15.9 17.9568M12.9 14.3568L17.4 11.3568L21.9 15.5568M4.49998 22.1568H19.5C20.8255 22.1568 21.9 21.0823 21.9 19.7568V4.75681C21.9 3.43133 20.8255 2.35681 19.5 2.35681H4.49998C3.17449 2.35681 2.09998 3.43133 2.09998 4.75681V19.7568C2.09998 21.0823 3.17449 22.1568 4.49998 22.1568Z" stroke="black" stroke-width="2" stroke-linecap="round" stroke-linejoin="round"/>
<path d="M2.09998 15.3568L8.39998 10.1568L15.9 17.9568M12.9 14.3568L17.4 11.3568L21.9 15.5568M4.49998 22.1568H19.5C20.8255 22.1568 21.9 21.0823 21.9 19.7568V4.75681C21.9 3.43133 20.8255 2.35681 19.5 2.35681H4.49998C3.17449 2.35681 2.09998 3.43133 2.09998 4.75681V19.7568C2.09998 21.0823 3.17449 22.1568 4.49998 22.1568Z" stroke="black" stroke-opacity="0.2" stroke-width="2" stroke-linecap="round" stroke-linejoin="round"/>
</svg>
