<svg width="29" height="17" viewBox="0 0 29 17" fill="none" xmlns="http://www.w3.org/2000/svg">
<path d="M24.3555 9.86072L24.8891 10.4007L25.4226 9.86064L28.1957 7.0533L28.1957 7.0533C28.1993 7.04963 28.2031 7.0472 28.2067 7.04571L28.1895 7.00476L28.1895 7.00476L28.2067 7.04571C28.2102 7.04422 28.2137 7.04358 28.217 7.04358C28.2203 7.04358 28.2238 7.04422 28.2273 7.04571L28.2281 7.04383L28.2273 7.04571C28.2292 7.0465 28.2311 7.04754 28.2331 7.0489L28.2376 7.05349C28.2413 7.05718 28.2446 7.06205 28.2471 7.06802C28.2495 7.07403 28.2509 7.08077 28.2509 7.08779C28.2509 7.09481 28.2495 7.10155 28.2471 7.10756L28.9411 7.39171L28.2471 7.10756C28.2446 7.11355 28.2412 7.11842 28.2376 7.12211L28.2375 7.1222L24.8881 10.5119L22.965 8.56557C22.9575 8.55795 22.9517 8.54575 22.9517 8.53116C22.9517 8.51658 22.9575 8.50437 22.965 8.49675L22.4315 7.9696L22.965 8.49675C22.9722 8.48945 22.9801 8.487 22.9864 8.487C22.9927 8.487 23.0006 8.48945 23.0078 8.49675L23.5413 7.9696L23.0078 8.49676L24.3555 9.86072Z" fill="#FD542E" stroke="#7F7F7F" stroke-width="1.5"/>
<path d="M1.00098 16C1.00098 14.5977 2.36681 11.422 6.45145 11.5838C9.08257 11.688 10.308 13.556 11.3351 14.7407C12.4064 15.9766 14.2877 16.7035 15.764 14.7407M5.94561 9.54386C6.84929 9.54386 7.71596 9.19727 8.35496 8.58032C8.99395 7.96338 9.35294 7.12663 9.35294 6.25414C9.35294 5.38165 8.99395 4.5449 8.35496 3.92795C7.71596 3.31101 6.84929 2.96442 5.94561 2.96442C5.04193 2.96442 4.17526 3.31101 3.53626 3.92795C2.89726 4.5449 2.53827 5.38165 2.53827 6.25414C2.53827 7.12663 2.89726 7.96338 3.53626 8.58032C4.17526 9.19727 5.04193 9.54386 5.94561 9.54386Z" stroke="#7F7F7F" stroke-width="1.5" stroke-linecap="round"/>
<path d="M21.9248 15.9983C21.9248 14.3848 20.3533 10.7309 15.6537 10.9171C12.6264 11.037 11.2164 13.1862 10.0347 14.5494C8.80206 15.9713 6.63757 16.8076 4.93899 14.5494M16.2357 8.57002C15.1959 8.57002 14.1988 8.17124 13.4636 7.46141C12.7284 6.75158 12.3153 5.78884 12.3153 4.78498C12.3153 3.78113 12.7284 2.81839 13.4636 2.10855C14.1988 1.39872 15.1959 0.999939 16.2357 0.999939C17.2754 0.999939 18.2726 1.39872 19.0078 2.10855C19.743 2.81839 20.156 3.78113 20.156 4.78498C20.156 5.78884 19.743 6.75158 19.0078 7.46141C18.2726 8.17124 17.2754 8.57002 16.2357 8.57002Z" stroke="#7F7F7F" stroke-width="1.5" stroke-linecap="round"/>
</svg>
