<svg width="20" height="21" viewBox="0 0 20 21" fill="none" xmlns="http://www.w3.org/2000/svg">
<ellipse cx="9.97612" cy="10" rx="9.97612" ry="10" transform="matrix(0.00120005 -1.0012 0.998801 0.0011946 0 20.2329)" fill="black"/>
<ellipse cx="9.97612" cy="10" rx="9.97612" ry="10" transform="matrix(0.00120005 -1.0012 0.998801 0.0011946 0 20.2329)" fill="black" fill-opacity="0.2"/>
<path fill-rule="evenodd" clip-rule="evenodd" d="M13.4918 14.4238C13.7847 14.7167 14.2596 14.7167 14.5525 14.4238C14.8453 14.1309 14.8453 13.656 14.5525 13.3631L11.4462 10.2569L14.5525 7.15058C14.8454 6.85769 14.8454 6.38281 14.5525 6.08992C14.2596 5.79703 13.7847 5.79703 13.4918 6.08992L10.3855 9.1962L7.12783 5.93849C6.83494 5.6456 6.36006 5.6456 6.06717 5.93849C5.77428 6.23139 5.77428 6.70626 6.06717 6.99915L9.32488 10.2569L6.06719 13.5145C5.7743 13.8074 5.7743 14.2823 6.06719 14.5752C6.36009 14.8681 6.83496 14.8681 7.12785 14.5752L10.3855 11.3175L13.4918 14.4238Z" fill="white"/>
</svg>
