<svg width="24" height="26" viewBox="0 0 24 26" fill="none" xmlns="http://www.w3.org/2000/svg">
<path d="M1.33331 24.5151V10.446L11.7178 1.5627C11.8961 1.45883 12.1039 1.45884 12.2822 1.56271L22.6666 10.4452V24.5151H15.7417V19.4141C15.7417 18.1952 14.8105 17.0674 13.4982 17.0674H10.7226C9.41034 17.0674 8.47911 18.1952 8.47911 19.4141V24.5151H1.33331Z" stroke="black" stroke-width="2"/>
<path d="M1.33331 24.5151V10.446L11.7178 1.5627C11.8961 1.45883 12.1039 1.45884 12.2822 1.56271L22.6666 10.4452V24.5151H15.7417V19.4141C15.7417 18.1952 14.8105 17.0674 13.4982 17.0674H10.7226C9.41034 17.0674 8.47911 18.1952 8.47911 19.4141V24.5151H1.33331Z" stroke="black" stroke-opacity="0.2" stroke-width="2"/>
</svg>
