<svg width="16" height="16" viewBox="0 0 16 16" fill="none" xmlns="http://www.w3.org/2000/svg">
<path fill-rule="evenodd" clip-rule="evenodd" d="M9.20995 8L12.9773 4.23266C13.0516 4.15838 13.1106 4.07018 13.1508 3.97311C13.1911 3.87603 13.2118 3.77198 13.2118 3.6669C13.2119 3.56181 13.1912 3.45775 13.151 3.36066C13.1108 3.26356 13.0519 3.17533 12.9776 3.101C12.9033 3.02667 12.8151 2.9677 12.7181 2.92746C12.621 2.88721 12.5169 2.86649 12.4119 2.86646C12.3068 2.86642 12.2027 2.88709 12.1056 2.92728C12.0085 2.96746 11.9203 3.02638 11.846 3.10066L8.07862 6.86866L4.31062 3.10066C4.15886 2.95891 3.95796 2.88167 3.75033 2.88525C3.54269 2.88882 3.34457 2.97292 3.19777 3.1198C3.05097 3.26669 2.96699 3.46486 2.96354 3.6725C2.96009 3.88013 3.03745 4.08099 3.17929 4.23266L6.94729 8L3.17929 11.7673C3.06793 11.8795 2.99221 12.022 2.96165 12.1771C2.9311 12.3321 2.94707 12.4927 3.00757 12.6387C3.06806 12.7847 3.17037 12.9096 3.30164 12.9976C3.4329 13.0856 3.58726 13.1328 3.74529 13.1333C3.94995 13.1333 4.15462 13.0553 4.31062 12.8993L8.07862 9.13133L11.846 12.8993C11.9202 12.9738 12.0083 13.0328 12.1054 13.0731C12.2024 13.1134 12.3065 13.1342 12.4116 13.1342C12.5167 13.1342 12.6208 13.1134 12.7179 13.0731C12.8149 13.0328 12.9031 12.9738 12.9773 12.8993C13.0517 12.825 13.1107 12.7368 13.1509 12.6397C13.1912 12.5426 13.2119 12.4385 13.2119 12.3333C13.2119 12.2282 13.1912 12.1241 13.1509 12.027C13.1107 11.9299 13.0517 11.8416 12.9773 11.7673L9.20995 8Z" fill="white"/>
</svg>
