<svg width="23" height="17" viewBox="0 0 23 17" fill="none" xmlns="http://www.w3.org/2000/svg">
<path d="M1.5 16C1.5 14.3512 3.63772 10.8075 9.13684 10.8075C14.636 10.8075 16.7737 14.3512 16.7737 15.9991M9.13684 8.73586C10.1498 8.73586 11.1212 8.32835 11.8375 7.60297C12.5538 6.87759 12.9561 5.89377 12.9561 4.86793C12.9561 3.84209 12.5538 2.85827 11.8375 2.13289C11.1212 1.40751 10.1498 1 9.13684 1C8.1239 1 7.15245 1.40751 6.43619 2.13289C5.71993 2.85827 5.31754 3.84209 5.31754 4.86793C5.31754 5.89377 5.71993 6.87759 6.43619 7.60297C7.15245 8.32835 8.1239 8.73586 9.13684 8.73586Z" stroke="#7F7F7F" stroke-width="1.5" stroke-linecap="round"/>
<path d="M16.0454 8.27277H21.5" stroke="#7F7F7F" stroke-width="1.5" stroke-linecap="round"/>
<path d="M21.4998 8.27265L19.6816 6.45447" stroke="#7F7F7F" stroke-width="1.5" stroke-linecap="round"/>
<path d="M21.4998 8.2727L19.6816 10.0909" stroke="#7F7F7F" stroke-width="1.5" stroke-linecap="round"/>
</svg>
